<svg xmlns="http://www.w3.org/2000/svg" viewBox="0 0 512 512"><path fill="#333" fill-rule="evenodd" d="M463.151,443.2l.023.024a25.683,25.683,0,0,1,7.5,18.22h.021a25.688,25.688,0,0,1-7.523,18.22l-4.956,4.956A25.692,25.692,0,0,1,440,492.14v-.022a25.684,25.684,0,0,1-18.219-7.5l-41.42-41.42H47.352a32.749,32.749,0,0,1-32.669-32.669v-358A32.749,32.749,0,0,1,47.352,19.86h417.3a32.749,32.749,0,0,1,32.669,32.669v358A32.749,32.749,0,0,1,464.648,443.2Z" class="color333333 svgShape"/><path fill="#c8a6f2" fill-rule="evenodd" d="M242.371,166.174A97.626,97.626,0,1,0,311.4,194.768a97.32,97.32,0,0,0-69.034-28.594Zm-11.309,144.3a5.518,5.518,0,0,1-10.362-3.8l32.979-89.538a5.518,5.518,0,1,1,10.362,3.8l-32.979,89.538Zm49.832-15.4a5.5,5.5,0,1,1-6.822-8.635L302.644,263.8l-28.572-22.635a5.5,5.5,0,1,1,6.822-8.635l33.935,26.885a5.506,5.506,0,0,1,.086,8.7l-34.021,26.953Zm-70.864-8.635a5.5,5.5,0,0,1-6.822,8.635L169.187,268.12a5.506,5.506,0,0,1,.086-8.7l33.935-26.885a5.5,5.5,0,0,1,6.822,8.635L181.458,263.8Z" class="colora6e1f2 svgShape"/><path fill="#7d2de2" fill-rule="evenodd" d="M25.736,103.305H486.264V52.518A21.694,21.694,0,0,0,464.648,30.9H47.352A21.694,21.694,0,0,0,25.736,52.518v50.787ZM185.8,75.473a5.527,5.527,0,0,1,0-11.053H438.088a5.527,5.527,0,0,1,0,11.053ZM73.937,64.42a5.527,5.527,0,0,1,0,11.053h-.026a5.527,5.527,0,0,1,0-11.053Zm35.368,0a5.527,5.527,0,1,1,0,11.053h-.025a5.527,5.527,0,1,1,0-11.053Zm35.369,0a5.527,5.527,0,0,1,0,11.053h-.026a5.527,5.527,0,0,1,0-11.053Z" class="color2daae2 svgShape"/><rect width="13.084" height="45.783" x="366.848" y="371.93" fill="#b3b3b3" class="colorb3b3b3 svgShape" transform="rotate(-45 373.39 394.822)"/><path fill="#6706e2" fill-rule="evenodd" d="M409.4,406.817l-24.01,24.01a1.264,1.264,0,0,0,0,1.757l44.207,44.208A14.681,14.681,0,0,0,440,481.1v-.022a14.668,14.668,0,0,0,10.406-4.284l4.956-4.956a14.669,14.669,0,0,0,4.285-10.406h.021a14.678,14.678,0,0,0-4.306-10.405l-44.207-44.208a1.264,1.264,0,0,0-1.757,0Z" class="color4d4d4d svgShape"/><path fill="#f7f7f8" fill-rule="evenodd" d="M402.028,398.579a12.31,12.31,0,0,1,16.939.424L452.1,432.134h12.55a21.694,21.694,0,0,0,21.616-21.617V114.358H25.736V410.517a21.694,21.694,0,0,0,21.616,21.617H373.985c0-.143-.007-.286-.007-.428a12.265,12.265,0,0,1,3.169-8.247l-32.941-32.941a16.534,16.534,0,0,1-19.2-3l-11.532-11.531a132.744,132.744,0,1,1,41.076-41.076l11.531,11.531a16.534,16.534,0,0,1,3,19.2Z" class="colorf7f7f8 svgShape"/><path fill="#ccc" fill-rule="evenodd" d="M156.272,177.7A121.775,121.775,0,0,0,311.1,364.345l3.779-2.589L332.824,379.7a5.464,5.464,0,0,0,7.682,0l17.765-17.764a5.466,5.466,0,0,0,0-7.682l-17.947-17.947,2.589-3.779A121.776,121.776,0,0,0,156.272,177.7Zm9.25,9.251A108.677,108.677,0,1,1,133.689,263.8,108.342,108.342,0,0,1,165.522,186.954Z" class="colorcccccc svgShape"/></svg>