<svg xmlns="http://www.w3.org/2000/svg" enable-background="new 0 0 93 93" viewBox="0 0 93 93"><path fill="#dac0fc" d="M21.69741,70.78447c3.05981,5.01569,3.8103,9.64386,3.94946,13.84985h52.50268
						c-0.62769-2.03357-1.55249-4.11139-1.38159-6.66791c0.21265-3.18451,2.10327-6.79633,4.12915-10.57574
						c2.19385-4.09278,4.65015-8.67487,5.46436-13.60285c0.90088-5.45251-0.6958-11.54779-5.61011-13.33533
						c-10.68408-3.88635-21.97265,12.50995-33.23877,10.45319c-10.70093-1.95355-21.13843-20.24103-33.84229-18.36285
						c-8.73193,1.29071-8.72729,12.39655-4.55054,20.42065C12.74111,59.9207,18.45913,65.47618,21.69741,70.78447z" class="colorfcf0c0 svgShape"/><path d="M91.5 85.13428h-8.77344c-.27637 0-.5-.22363-.5-.5s.22363-.5.5-.5H91.5c.27637 0 .5.22363.5.5S91.77637 85.13428 91.5 85.13428zM10.27441 85.13428H1.5c-.27637 0-.5-.22363-.5-.5s.22363-.5.5-.5h8.77441c.27637 0 .5.22363.5.5S10.55078 85.13428 10.27441 85.13428zM72.49708 72.35597l-7.92381 6.81406H26.5406l-7.9241-6.81406c-2.91174-2.68507-2.51784-7.25568-1.10975-11.61148 2.04061-6.31287 6.26516-11.70691 11.73087-15.4779l1.50365-1.03822c0 0-4.83318-4.51095-2.93563-8.5564 0 0 3.28175-11.03862 9.52303-17.47087 4.48706-4.63026 11.96948-4.63026 16.45654 0 6.25322 6.43225 9.52303 17.47087 9.52303 17.47087 1.89726 4.04545-2.93563 8.5564-2.93563 8.5564l1.50336 1.03822c5.4657 3.771 9.69026 9.16503 11.74281 15.4779C75.02686 65.1003 75.42076 69.6709 72.49708 72.35597z" class="color000000 svgShape"/><path fill="#fff" d="M24.72511,54.25159v26.35719h41.67416V54.25159c0-1.14501-0.92822-2.07323-2.07323-2.07323h-37.5277
				C25.65333,52.17837,24.72511,53.10658,24.72511,54.25159z" class="colorffffff svgShape"/><rect width="44.895" height="4.026" x="23.115" y="80.609" fill="#f1eafa" class="coloreaf3fa svgShape"/><path d="M79.15234,84.13428H68.50977v-3.52539c0-0.27637-0.22363-0.5-0.5-0.5h-1.11035V54.25147
					c0-1.41895-1.1543-2.57324-2.57324-2.57324H26.79785c-1.41797,0-2.57227,1.1543-2.57227,2.57324v25.85742h-1.11035
					c-0.27637,0-0.5,0.22363-0.5,0.5v3.52539h-8.7666c-0.27637,0-0.5,0.22363-0.5,0.5s0.22363,0.5,0.5,0.5
					c6.04257,0.00002,7.03719,0.00101,65.30371,0c0.27637,0,0.5-0.22363,0.5-0.5S79.42871,84.13428,79.15234,84.13428z
					 M25.22559,54.25147c0-0.86768,0.70508-1.57324,1.57227-1.57324h37.52832c0.86719,0,1.57324,0.70557,1.57324,1.57324v25.85742
					H25.22559V54.25147z M23.61523,81.10889c12.63705,0,35.64775,0,43.89453,0v3.02539H23.61523V81.10889z" class="color000000 svgShape"/><rect width="8.757" height="1" x="66.867" y="77.134" class="color000000 svgShape"/><rect width="8.757" height="1" x="15.5" y="77.134" class="color000000 svgShape"/><path fill="#fff" d="M35.42993,31.70362c0,6.6737,4.53467,16.29663,10.12866,16.29663
				c5.59375,0,10.12842-9.62292,10.12842-16.29663H35.42993z" class="colorffffff svgShape"/><path fill="#dad3e3" d="M58.60629,34.75727c0.78877,0.26923,1.52955-0.50632,1.23841-1.28728
					c-1.2485-3.34909-3.91504-9.52891-7.83303-13.55833c-1.70077-1.75556-3.99303-2.7223-6.45498-2.7223
					c-2.46098,0-4.75421,0.96674-6.45595,2.72327c-3.90815,4.0278-6.57714,10.2061-7.82829,13.55627
					c-0.29169,0.78104,0.44916,1.55712,1.2382,1.28783C41.20919,31.78807,49.90774,31.78825,58.60629,34.75727z" class="colord3dce3 svgShape"/><path fill="#909091" d="M56.13722,67.27258c0.03816,1.02938-0.0636,2.04597-0.31769,2.99902
						c-0.27953,1.13091-1.29618,1.91885-2.46518,1.91885H53.189c-0.71138,0-1.27075,0.57177-1.27075,1.27074v0.99114
						c0,0.6989-0.57177,1.27075-1.27075,1.27075H40.51968c-0.69867,0-1.27075-0.57185-1.27075-1.27075V73.4612
						c0-0.69897-0.57178-1.27074-1.27075-1.27074h-0.17776c-1.14386,0-2.16021-0.74978-2.46549-1.85532
						c-0.22865-0.8641-0.35554-1.76636-0.35554-2.69398c0-6.0615,5.09571-10.90304,11.18233-10.55992
						C51.54999,57.37348,55.95945,61.88462,56.13722,67.27258z" class="color919090 svgShape"/><circle cx="41.726" cy="64.794" r="2.026" fill="#fff" class="colorffffff svgShape"/><circle cx="49.398" cy="64.794" r="2.026" fill="#fff" class="colorffffff svgShape"/><path fill="#fff" d="M47.11547,72.78535h-3.10656c-0.16171,0-0.26891-0.16767-0.20105-0.31445l1.55781-3.36926
						c0.07934-0.17159,0.32334-0.17133,0.4023,0.00045l1.54875,3.36925C47.38417,72.61808,47.27697,72.78535,47.11547,72.78535z" class="colorffffff svgShape"/><circle cx="69.169" cy="16.697" r="8.331" fill="#7000ff" class="colorffd200 svgShape"/><path d="M69.16895,25.52784c-4.86914,0-8.83105-3.96191-8.83105-8.83154s3.96191-8.83105,8.83105-8.83105
						S78,11.82667,78,16.6963S74.03809,25.52784,69.16895,25.52784z M69.16895,8.86524c-4.31836,0-7.83105,3.51318-7.83105,7.83105
						c0,4.31836,3.5127,7.83154,7.83105,7.83154S77,21.01466,77,16.6963C77,12.37843,73.4873,8.86524,69.16895,8.86524z" class="color000000 svgShape"/><path d="M70.52965,12.79476l-0.80914,5.33488c-0.02258,0.28759-0.26219,0.50749-0.54977,0.50749
							s-0.52727-0.2199-0.5526-0.50749l-0.8092-5.33488c-0.06767-0.79508,0.56107-1.47737,1.3618-1.47737
							C69.96866,11.31739,70.59738,11.99968,70.52965,12.79476z" class="color000000 svgShape"/><circle cx="69.169" cy="20.807" r="1.037" class="color000000 svgShape"/><g class="color000000 svgShape"><path fill="#6706e2" d="M18.43066,41.0337h-1.75v-1.75c0-0.13818-0.1123-0.25-0.25-0.25s-0.25,0.11182-0.25,0.25v1.75h-1.75
				c-0.1377,0-0.25,0.11182-0.25,0.25s0.1123,0.25,0.25,0.25h1.75v1.75c0,0.13818,0.1123,0.25,0.25,0.25s0.25-0.11182,0.25-0.25
				v-1.75h1.75c0.1377,0,0.25-0.11182,0.25-0.25S18.56836,41.0337,18.43066,41.0337z" class="color2e1c66 svgShape"/></g><g class="color000000 svgShape"><path fill="#7000ff" d="M80.69434,49.37061h-1.75v-1.75c0-0.13818-0.1123-0.25-0.25-0.25s-0.25,0.11182-0.25,0.25v1.75h-1.75
				c-0.1377,0-0.25,0.11182-0.25,0.25s0.1123,0.25,0.25,0.25h1.75v1.75c0,0.13818,0.1123,0.25,0.25,0.25s0.25-0.11182,0.25-0.25
				v-1.75h1.75c0.1377,0,0.25-0.11182,0.25-0.25S80.83203,49.37061,80.69434,49.37061z" class="colorff6700 svgShape"/></g><g class="color000000 svgShape"><path fill="#5b00ce" d="M30.43066,10.63624h-1.75v-1.75c0-0.13818-0.1123-0.25-0.25-0.25s-0.25,0.11182-0.25,0.25v1.75h-1.75
				c-0.1377,0-0.25,0.11182-0.25,0.25s0.1123,0.25,0.25,0.25h1.75v1.75c0,0.13818,0.1123,0.25,0.25,0.25s0.25-0.11182,0.25-0.25
				v-1.75h1.75c0.1377,0,0.25-0.11182,0.25-0.25S30.56836,10.63624,30.43066,10.63624z" class="color00ce4a svgShape"/></g></svg>