<svg xmlns="http://www.w3.org/2000/svg" viewBox="0 0 64 64"><g class="color000000 svgShape" data-name="filed outline"><path fill="#d9bffb" d="M33.478,15.378l2.68-2.941,1.252,3.777a2,2,0,0,0,2.7,1.2l3.645-1.6-.392,3.959a2,2,0,0,0,1.978,2.2L49.321,22l-1.969,3.458a2,2,0,0,0,.913,2.811l3.625,1.64-3.2,2.358a2,2,0,0,0-.309,2.941l2.644,2.972-3.887.851a2,2,0,0,0-1.478,2.56l1.207,3.792-3.9-.8a2,2,0,0,0-2.392,1.737l-.439,3.955L36.9,47.952a2,2,0,0,0-2.892.614L32,52l-2.01-3.434a2,2,0,0,0-2.892-.614l-3.233,2.319-.439-3.955a2,2,0,0,0-2.392-1.737l-3.9.8,1.207-3.792a2,2,0,0,0-1.478-2.56l-3.887-.851,2.644-2.972a2,2,0,0,0-.309-2.941l-3.2-2.358,3.625-1.64a2,2,0,0,0,.913-2.811L14.679,22l3.979-.024a2,2,0,0,0,1.978-2.2l-.392-3.959,3.645,1.6a2,2,0,0,0,2.7-1.2l1.252-3.777,2.68,2.941A2,2,0,0,0,33.478,15.378Z" class="colorfbedbf svgShape"/><circle cx="32" cy="32" r="12" fill="#9448f5" class="colorf55648 svgShape"/><path fill="#8541dc" d="M34,27H32a1,1,0,0,1,0-2h2a1,1,0,0,1,0,2Z" class="colordc4d41 svgShape"/><rect width="2" height="2" x="58" y="42" fill="#d9bffb" class="colorfbedbf svgShape"/><rect width="2" height="2" x="58" y="46" fill="#d9bffb" class="colorfbedbf svgShape"/><rect width="2" height="2" x="60" y="44" fill="#d9bffb" class="colorfbedbf svgShape"/><rect width="2" height="2" x="58" y="42" fill="#d9bffb" class="colorfbedbf svgShape"/><rect width="2" height="2" x="58" y="46" fill="#d9bffb" class="colorfbedbf svgShape"/><rect width="2" height="2" x="60" y="44" fill="#d9bffb" class="colorfbedbf svgShape"/><rect width="2" height="2" x="5" y="2" fill="#c499fb" class="colorfbd699 svgShape"/><rect width="2" height="2" x="5" y="8" fill="#c499fb" class="colorfbd699 svgShape"/><rect width="2" height="2" x="2" y="5" fill="#c499fb" class="colorfbd699 svgShape"/><rect width="2" height="2" x="8" y="5" fill="#c499fb" class="colorfbd699 svgShape"/><rect width="2" height="2" x="5" y="2" fill="#c499fb" class="colorfbd699 svgShape"/><rect width="2" height="2" x="5" y="8" fill="#c499fb" class="colorfbd699 svgShape"/><rect width="2" height="2" x="2" y="5" fill="#c499fb" class="colorfbd699 svgShape"/><rect width="2" height="2" x="8" y="5" fill="#c499fb" class="colorfbd699 svgShape"/><circle cx="18" cy="7" r="3.5" fill="#8322fd" class="colorfd7422 svgShape"/><path fill="#8f39fd" d="M21.444,7.552a2.436,2.436,0,1,0-2.892,2.892A3.483,3.483,0,0,0,21.444,7.552Z" class="colorfd8039 svgShape"/><circle cx="51.5" cy="56.5" r="3.5" fill="#a78dc7" class="color8dc79d svgShape"/><path fill="#b397d6" d="M50.987,53.049a3.444,3.444,0,0,0-2.938,2.938,2.5,2.5,0,1,0,2.938-2.938Z" class="color97d6a8 svgShape"/><rect width="2" height="2" x="7" y="17" fill="#d9bffb" class="colorfbedbf svgShape"/><rect width="2" height="2" x="39" y="53" fill="#c499fb" class="colorfbd699 svgShape"/><rect width="2" height="2" x="32" y="58" fill="#c499fb" class="colorfbd699 svgShape"/><path fill="#a361f7" d="M25,55h0a6.709,6.709,0,0,1-3,3h0a6.709,6.709,0,0,1,3,3h0a6.709,6.709,0,0,1,3-3h0a6.709,6.709,0,0,1-3-3Z" class="colorf7ba61 svgShape"/><circle cx="55" cy="10" r="4" fill="#d2b4f9" class="colorf9b4cc svgShape"/><path fill="#d7b8ff" d="M53.834,8.332a2.836,2.836,0,0,0-2.775,2.257,3.98,3.98,0,0,0,3.352,3.352,2.834,2.834,0,0,0-.577-5.609Z" class="colorffb8d1 svgShape"/><circle cx="9" cy="54" r="7" fill="#d6bdf5" class="colorbdf1f5 svgShape"/><path fill="#cab3e8" d="M8,48a6.966,6.966,0,0,0-4.423,1.577,7,7,0,0,0,9.846,9.846A7,7,0,0,0,8,48Z" class="colorb3e4e8 svgShape"/><path fill="#7e6b97" d="M14.824,50.118,12.8,51.47a1.958,1.958,0,0,1-1.7.228l-.239-.08a1.954,1.954,0,0,0-2.472,1.236h0a1.955,1.955,0,0,0,.472,2l.574.574A1.954,1.954,0,0,0,10.81,56h1.982a1.954,1.954,0,0,1,1.748,1.08l.348.7a6.981,6.981,0,0,0-.064-7.658Z" class="color6b9777 svgShape"/><path fill="#6706e2" d="M13.66 50.893l-.865.577a1.958 1.958 0 0 1-1.7.228l-.239-.08a1.954 1.954 0 0 0-2 3.236l.574.574A1.954 1.954 0 0 0 10.81 56h1.982a1.954 1.954 0 0 1 1.748 1.08l.081.161a6.913 6.913 0 0 0-.961-6.348zM5.8 57a1.938 1.938 0 0 0-1.37.567l-.878.831.445.5A6.976 6.976 0 0 0 9 61L7.536 58.071A1.94 1.94 0 0 0 5.8 57z" class="color5e8569 svgShape"/><rect width="2" height="2" x="56" y="44" fill="#d9bffb" class="colorfbedbf svgShape"/><path d="M34,27a1,1,0,0,0,0-2H32a1,1,0,0,0,0,2Z" class="color000000 svgShape"/><path d="M15.322,27.358,11.7,29a1,1,0,0,0-.18,1.716l3.205,2.357a1,1,0,0,1,.154,1.471l-2.644,2.973a1,1,0,0,0,.533,1.641l3.887.851a1,1,0,0,1,.739,1.28L16.184,45.08a1,1,0,0,0,1.155,1.282l3.9-.8a1,1,0,0,1,1.2.869l.44,3.954a1,1,0,0,0,1.576.7l3.233-2.319a1,1,0,0,1,1.446.308l2.01,3.433a1,1,0,0,0,1.726,0l2.01-3.433a1,1,0,0,1,1.446-.308l3.233,2.319a1,1,0,0,0,1.576-.7l.44-3.954a1,1,0,0,1,1.2-.869l3.9.8a1,1,0,0,0,1.155-1.282l-1.207-3.792a1,1,0,0,1,.739-1.28l3.887-.851a1,1,0,0,0,.533-1.641l-2.644-2.973a1,1,0,0,1,.154-1.47l3.2-2.358A1,1,0,0,0,52.3,29l-3.625-1.641a1,1,0,0,1-.457-1.406L50.189,22.5a1,1,0,0,0-.863-1.5l-3.978-.024a1,1,0,0,1-.99-1.1l.393-3.96a1,1,0,0,0-1.4-1.014L39.71,16.5a1,1,0,0,1-1.351-.6l-1.252-3.776a1,1,0,0,0-1.688-.359l-2.68,2.941a1.024,1.024,0,0,1-1.478,0l-2.68-2.941a1,1,0,0,0-1.688.359L25.641,15.9a1,1,0,0,1-1.351.6l-3.644-1.6a1,1,0,0,0-1.4,1.014l.393,3.959a1,1,0,0,1-.99,1.1L14.674,21a1,1,0,0,0-.863,1.5l1.968,3.457a1,1,0,0,1-.457,1.406Zm.825,1.823a3,3,0,0,0,1.371-4.218L16.394,22.99l2.27-.014a3,3,0,0,0,2.968-3.295l-.224-2.26,2.079.911a3,3,0,0,0,4.052-1.8l.714-2.154,1.53,1.677a3.1,3.1,0,0,0,4.434,0l1.53-1.677.714,2.155a3,3,0,0,0,4.052,1.8l2.079-.911-.224,2.26a3,3,0,0,0,2.968,3.295l2.27.014-1.124,1.973a3,3,0,0,0,1.372,4.218l.845.382c-.267.265-.528.529-.8.794a.992.992,0,0,0-.068,1.346,2.97,2.97,0,0,0-.2,4.169l1.509,1.7-2.218.486A3,3,0,0,0,44.7,41.9l.689,2.163L43.168,43.6a3,3,0,0,0-3.587,2.607l-.251,2.256-1.845-1.323a3,3,0,0,0-4.338.922L32,50.021l-1.147-1.96a3.005,3.005,0,0,0-1.965-1.419,2.973,2.973,0,0,0-.312-.033.966.966,0,0,0-.1-.259,1,1,0,0,0-1.37-.37c-.58.34-1.17.66-1.74.98a.992.992,0,0,0-.418,1.3l-.282.2-.251-2.256A3,3,0,0,0,20.832,43.6l-2.224.459L19.3,41.9a3,3,0,0,0-2.216-3.841l-2.218-.486,1.509-1.7a3,3,0,0,0-.464-4.411l-1.829-1.345Z" class="color000000 svgShape"/><path d="M22.246 49.7a1 1 0 0 0-1.329-.484q-.924.43-1.817.813a1 1 0 1 0 .786 1.839q.921-.394 1.877-.839A1 1 0 0 0 22.246 49.7zM55.374 23.6a1 1 0 0 0-1.406.158q-.6.756-1.267 1.532a1 1 0 1 0 1.518 1.3q.688-.8 1.313-1.586A1 1 0 0 0 55.374 23.6zM7.511 40.238q-.642.863-1.2 1.69a1 1 0 1 0 1.66 1.115q.529-.788 1.143-1.609a1 1 0 0 0-1.6-1.2zM57.754 18.035c-.269.539-.586 1.11-.941 1.7a1 1 0 1 0 1.71 1.037c.384-.633.727-1.252 1.021-1.842a1 1 0 1 0-1.79-.891zM45.9 13.475a.994.994 0 0 0 .368-.071q.951-.377 1.857-.693a1 1 0 1 0-.659-1.888q-.944.328-1.935.722a1 1 0 0 0 .369 1.93zM3.286 59.594c.011.012.024.022.036.034.087.088.182.169.273.253s.206.2.315.286c.026.022.055.041.082.062a7.9 7.9 0 0 0 4.17 1.726l.022 0A8.165 8.165 0 0 0 9 62a7.994 7.994 0 0 0 6.712-3.663c.005-.007.013-.012.017-.02.016-.025.027-.052.042-.076a7.965 7.965 0 0 0 .463-.847c.02-.043.043-.086.063-.131a7.916 7.916 0 0 0 .368-.986c.012-.039.02-.078.031-.117a7.894 7.894 0 0 0 .192-.884c.014-.083.027-.165.038-.248A7.921 7.921 0 0 0 17 54a8.055 8.055 0 0 0-.077-1.049c-.012-.091-.026-.181-.042-.272a7.942 7.942 0 0 0-.2-.9c-.012-.041-.02-.083-.032-.123a8.177 8.177 0 0 0-.366-.95c-.039-.085-.08-.168-.122-.251a8.126 8.126 0 0 0-.452-.8c-.02-.03-.033-.063-.053-.093l-.009-.009A8 8 0 1 0 3.271 59.572C3.277 59.578 3.279 59.588 3.286 59.594zm3.933.136c-.021-.006-.041-.016-.062-.022a6.064 6.064 0 0 1-.823-.341c-.071-.035-.143-.067-.212-.1-.095-.051-.184-.111-.276-.167s-.172-.106-.255-.163-.152-.113-.227-.17c-.093-.072-.186-.145-.276-.222L5 58.463l.136-.189a.969.969 0 0 1 1.5.244l.61 1.22zm7.254-8.177c.009.02.02.039.028.059.046.1.083.21.122.315.031.084.065.167.093.253.037.116.065.234.1.353.02.078.044.155.061.235.029.139.047.28.067.421.008.063.022.124.028.187A5.9 5.9 0 0 1 15 54a5.818 5.818 0 0 1-.059.793c-.008.06-.017.119-.027.178a5.813 5.813 0 0 1-.171.761h0A2.946 2.946 0 0 0 12.792 55H10.81a.961.961 0 0 1-.675-.279l-.574-.574a.954.954 0 0 1 .674-1.629.971.971 0 0 1 .3.049l.238.079A2.938 2.938 0 0 0 13.35 52.3zM9 48a5.981 5.981 0 0 1 4.361 1.891l-1.12.747a.944.944 0 0 1-.832.111l-.239-.08a2.954 2.954 0 0 0-3.023 4.892l.574.574A2.933 2.933 0 0 0 10.81 57h1.982a.949.949 0 0 1 .854.528l.079.158A5.993 5.993 0 0 1 9.6 59.969L8.43 57.624a2.937 2.937 0 0 0-4.7-.764A6 6 0 0 1 9 48z" class="color000000 svgShape"/><rect width="2" height="2" x="56" y="44" class="color000000 svgShape"/><rect width="2" height="2" x="58" y="42" class="color000000 svgShape"/><rect width="2" height="2" x="58" y="46" class="color000000 svgShape"/><rect width="2" height="2" x="60" y="44" class="color000000 svgShape"/><rect width="2" height="2" x="5" y="2" class="color000000 svgShape"/><rect width="2" height="2" x="5" y="8" class="color000000 svgShape"/><rect width="2" height="2" x="2" y="5" class="color000000 svgShape"/><rect width="2" height="2" x="8" y="5" class="color000000 svgShape"/><path d="M18 11.5A4.5 4.5 0 1 0 13.5 7 4.505 4.505 0 0 0 18 11.5zm0-7A2.5 2.5 0 1 1 15.5 7 2.5 2.5 0 0 1 18 4.5zM51.5 52A4.5 4.5 0 1 0 56 56.5 4.505 4.505 0 0 0 51.5 52zm0 7A2.5 2.5 0 1 1 54 56.5 2.5 2.5 0 0 1 51.5 59z" class="color000000 svgShape"/><rect width="2" height="2" x="7" y="17" class="color000000 svgShape"/><rect width="2" height="2" x="39" y="53" class="color000000 svgShape"/><rect width="2" height="2" x="32" y="58" class="color000000 svgShape"/><path d="M21.553 58.9a5.738 5.738 0 0 1 2.552 2.552 1 1 0 0 0 1.79 0A5.738 5.738 0 0 1 28.447 58.9a1 1 0 0 0 0-1.79A5.738 5.738 0 0 1 25.9 54.553a1.042 1.042 0 0 0-1.79 0 5.738 5.738 0 0 1-2.552 2.552 1 1 0 0 0 0 1.79zM25 56.836A7.811 7.811 0 0 0 26.164 58 7.811 7.811 0 0 0 25 59.164 7.811 7.811 0 0 0 23.836 58 7.811 7.811 0 0 0 25 56.836zM55 5a5 5 0 1 0 3.86 8.138 2.935 2.935 0 0 1 .1.576 1 1 0 0 0 1 .941c.019 0 .039 0 .06 0A1 1 0 0 0 60.96 13.6a4.419 4.419 0 0 0-.826-2.416l-.035-.048a.959.959 0 0 0-.2-.171A4.983 4.983 0 0 0 55 5zm0 8a3 3 0 1 1 3-3A3 3 0 0 1 55 13zM19.17 34h0v.006A13 13 0 0 0 31.28 44.964a.991.991 0 0 0 1.19.083l.117-.077A13 13 0 0 0 44.24 36.338c.431-.363.86-.727 1.278-1.091a1 1 0 0 0-.611-1.749A13.225 13.225 0 0 0 45 32a13.043 13.043 0 0 0-.17-2h0v-.006a12.982 12.982 0 0 0-25.658 0V30h0a11.838 11.838 0 0 0 0 4zm1.881-3H31a1 1 0 0 0 0-2H21.426a10.974 10.974 0 0 1 .788-2H28a1 1 0 0 0 0-2H23.521a10.987 10.987 0 0 1 16.958 0H38a1 1 0 0 0 0 2h3.786a10.974 10.974 0 0 1 .788 2H35a1 1 0 0 0 0 2h7.949c.03.33.051.662.051 1s-.021.67-.051 1H30a1 1 0 0 0 0 2H42.574c-.025.085-.041.173-.067.257a.987.987 0 0 0-.178.489 10.994 10.994 0 0 1-1.98 3.4.993.993 0 0 0-1.584-.97q-.7.531-1.409 1.059l-.2.145a.994.994 0 0 0 1.11 1.649A10.946 10.946 0 0 1 34.516 42.7a.988.988 0 0 0-.067-.162 1 1 0 0 0-1.388-.272c-.373.25-.743.491-1.115.733a10.98 10.98 0 0 1-8.425-4H33a1 1 0 0 0 0-2H22.214a10.974 10.974 0 0 1-.788-2H26a1 1 0 0 0 0-2H21.051c-.03-.33-.051-.662-.051-1S21.021 31.33 21.051 31z" class="color000000 svgShape"/></g></svg>